<mxfile host="app.diagrams.net" modified="2023-09-21T18:40:33.712Z" agent="Mozilla/5.0 (X11; Linux x86_64; rv:109.0) Gecko/20100101 Firefox/114.0" version="21.7.5" etag="6ygxNnG-Mvuzl5nIva_k" type="github">
  <diagram name="PÃ¡gina-1" id="5o39OZmMH9a_GZWhRPqF">
    <mxGraphModel>
      <root>
        <mxCell id="0" />
        <mxCell id="1" parent="0" />
      </root>
    </mxGraphModel>
  </diagram>
</mxfile>
